<svg xmlns="http://www.w3.org/2000/svg" version="1.1" xmlns:xlink="http://www.w3.org/1999/xlink" xmlns:svgjs="http://svgjs.dev/svgjs" width="1500" height="292" viewBox="0 0 1500 292"><g transform="matrix(1,0,0,1,0.15999999999996817,-0.26503999999999905)"><svg viewBox="0 0 375 73" data-background-color="#e0ded5" preserveAspectRatio="xMidYMid meet" height="292" width="1500" xmlns="http://www.w3.org/2000/svg" xmlns:xlink="http://www.w3.org/1999/xlink"><g id="tight-bounds" transform="matrix(1,0,0,1,-0.03976000000000113,0.06625999999999976)"><svg viewBox="0 0 375.07953 72.86748000000001" height="72.86748000000001" width="375.07953"><g><svg></svg></g><g><svg viewBox="0 0 375.07953 72.86748000000001" height="72.86748000000001" width="375.07953"><g transform="matrix(1,0,0,1,-10.22024,-91.73253999999999)"><path d="M10.22 155.467v-63.734h375.08v63.734l-110.295 0 0-2.464h107.83v-58.806h-370.15v58.806h107.83l0 2.464z" fill="#243cfc" fill-rule="nonzero" stroke="none" stroke-width="1" stroke-linecap="butt" stroke-linejoin="miter" stroke-miterlimit="10" stroke-dasharray="" stroke-dashoffset="0" font-family="none" font-weight="none" font-size="none" text-anchor="none" style="mix-blend-mode: normal" data-fill-palette-color="tertiary"></path><g><path d="M131.907 150.575v0c-0.58 0-1.359 0.257-2.336 0.771v0 7.886h-1.661v-9.99h1.164l0.356 0.828c1.207-0.679 2.252-1.019 3.135-1.019v0c1.016 0 1.814 0.37 2.394 1.11v0c1.323-0.735 2.506-1.102 3.55-1.102v0c0.505 0 0.95 0.069 1.334 0.207 0.384 0.138 0.696 0.327 0.936 0.568 0.24 0.237 0.436 0.537 0.588 0.899 0.152 0.362 0.255 0.743 0.311 1.143 0.058 0.4 0.087 0.853 0.087 1.358v0 5.998h-1.657v-6.109c0-0.121-0.004-0.233-0.012-0.336-0.006-0.105-0.022-0.25-0.05-0.435-0.028-0.188-0.068-0.353-0.12-0.497-0.055-0.144-0.135-0.301-0.241-0.472-0.102-0.168-0.228-0.308-0.376-0.418-0.149-0.11-0.338-0.203-0.568-0.278-0.229-0.075-0.485-0.112-0.766-0.112v0c-0.621 0-1.441 0.264-2.46 0.791v0c0.097 0.398 0.145 1.044 0.144 1.939v0 5.927h-1.66v-6.147c0-0.177-0.007-0.344-0.021-0.501-0.014-0.16-0.061-0.371-0.141-0.634-0.08-0.262-0.188-0.486-0.323-0.671-0.135-0.185-0.342-0.349-0.621-0.492-0.279-0.141-0.607-0.211-0.986-0.212zM149.804 149.051v0c1.383 0 2.521 0.44 3.413 1.321 0.895 0.884 1.342 2.104 1.342 3.662v0c0 1.651-0.457 2.964-1.371 3.939-0.914 0.975-2.096 1.462-3.545 1.462v0c-1.381 0-2.51-0.457-3.388-1.371-0.875-0.914-1.313-2.152-1.313-3.715v0c0-1.613 0.446-2.899 1.338-3.861 0.895-0.958 2.07-1.437 3.524-1.437zM149.663 150.463v0c-0.828 0-1.553 0.32-2.174 0.961-0.621 0.641-0.932 1.52-0.932 2.639v0c0 1.113 0.304 2.05 0.911 2.812 0.607 0.762 1.393 1.143 2.357 1.143v0c0.889 0 1.631-0.337 2.224-1.01 0.594-0.674 0.891-1.553 0.891-2.639v0c0-0.621-0.097-1.185-0.29-1.69-0.191-0.505-0.443-0.917-0.758-1.234-0.312-0.318-0.66-0.561-1.044-0.729-0.387-0.168-0.781-0.253-1.185-0.253zM157.691 159.232v-9.99h1.163l0.365 0.849c1.287-0.701 2.46-1.052 3.521-1.052v0c0.544 0 1.019 0.086 1.424 0.256 0.403 0.174 0.717 0.391 0.941 0.651 0.224 0.26 0.4 0.585 0.53 0.977 0.133 0.395 0.217 0.772 0.253 1.131 0.039 0.356 0.058 0.763 0.058 1.222v0 5.956h-1.661v-6.068c0-1.753-0.755-2.63-2.266-2.63v0c-0.781 0-1.671 0.26-2.667 0.779v0 7.919zM173.882 149.051v0c0.486 0 0.922 0.058 1.308 0.174 0.389 0.119 0.711 0.269 0.966 0.452 0.257 0.182 0.478 0.42 0.662 0.712 0.185 0.293 0.327 0.576 0.427 0.849 0.097 0.273 0.173 0.602 0.228 0.986 0.052 0.384 0.086 0.718 0.099 1.002 0.014 0.282 0.021 0.616 0.021 1.003v0 0.787h-6.868c0 0.364 0.083 0.726 0.249 1.085 0.166 0.362 0.399 0.693 0.7 0.994 0.298 0.298 0.692 0.543 1.18 0.733 0.489 0.188 1.03 0.282 1.624 0.282v0c0.701 0 1.459-0.121 2.274-0.365v0l0.294 1.135c-1.085 0.37-2.15 0.555-3.193 0.555v0c-0.735 0-1.388-0.098-1.96-0.294-0.569-0.196-1.027-0.45-1.375-0.762-0.345-0.315-0.63-0.692-0.853-1.131-0.224-0.436-0.377-0.873-0.46-1.309-0.086-0.434-0.128-0.893-0.128-1.379v0c0-0.748 0.091-1.433 0.273-2.055 0.182-0.619 0.429-1.139 0.742-1.561 0.309-0.42 0.671-0.775 1.085-1.065 0.414-0.29 0.849-0.501 1.305-0.633 0.456-0.13 0.922-0.195 1.4-0.195zM173.529 150.484v0c-0.594 0-1.105 0.164-1.532 0.493-0.428 0.326-0.74 0.732-0.936 1.218-0.196 0.486-0.294 1.008-0.294 1.565v0h5.219c0-2.184-0.819-3.276-2.457-3.276zM183.59 159.729l-4.175-10.487h1.819l3.193 8.474 2.974-8.474h1.719l-5.762 15.358h-1.772zM201.103 150.575v0c-0.58 0-1.359 0.257-2.337 0.771v0 7.886h-1.656v-9.99h1.164l0.352 0.828c1.207-0.679 2.252-1.019 3.135-1.019v0c1.019 0 1.818 0.37 2.398 1.11v0c1.32-0.735 2.503-1.102 3.55-1.102v0c0.505 0 0.95 0.069 1.334 0.207 0.384 0.138 0.696 0.327 0.936 0.568 0.237 0.237 0.432 0.537 0.584 0.899 0.152 0.362 0.257 0.743 0.315 1.143 0.058 0.4 0.087 0.853 0.087 1.358v0 5.998h-1.661v-6.109c0-0.121-0.003-0.233-0.009-0.336-0.008-0.105-0.025-0.25-0.049-0.435-0.028-0.188-0.069-0.353-0.125-0.497-0.052-0.144-0.131-0.301-0.236-0.472-0.105-0.168-0.232-0.308-0.381-0.418-0.146-0.11-0.334-0.203-0.563-0.278-0.229-0.075-0.486-0.112-0.77-0.112v0c-0.619 0-1.437 0.264-2.457 0.791v0c0.094 0.398 0.141 1.044 0.141 1.939v0 5.927h-1.657v-6.147c0-0.177-0.007-0.344-0.02-0.501-0.014-0.16-0.061-0.371-0.141-0.634-0.083-0.262-0.191-0.486-0.323-0.671-0.135-0.185-0.344-0.349-0.626-0.492-0.279-0.141-0.607-0.211-0.985-0.212zM217.952 149.051v0c0.74 0 1.368 0.086 1.885 0.257 0.516 0.171 0.914 0.422 1.193 0.754 0.279 0.329 0.479 0.696 0.6 1.101 0.121 0.403 0.182 0.868 0.182 1.396v0 6.673h-1.172l-0.385-0.911c-0.815 0.743-1.751 1.114-2.808 1.114v0c-0.944 0-1.744-0.284-2.398-0.853-0.654-0.572-0.982-1.238-0.982-2.001v0c0-0.403 0.075-0.766 0.224-1.089 0.149-0.326 0.363-0.596 0.642-0.812 0.279-0.215 0.598-0.399 0.956-0.551 0.356-0.152 0.772-0.268 1.247-0.348 0.475-0.08 0.953-0.137 1.433-0.17 0.478-0.036 1.004-0.054 1.578-0.053v0-0.787c0-0.229-0.01-0.428-0.029-0.597-0.017-0.168-0.072-0.371-0.165-0.609-0.094-0.235-0.222-0.428-0.386-0.58-0.16-0.152-0.402-0.283-0.724-0.393-0.326-0.11-0.711-0.166-1.156-0.166v0c-0.688 0-1.577 0.15-2.667 0.452v0l-0.315-1.214c1.105-0.409 2.187-0.613 3.247-0.613zM220.147 157.107v-2.294h-0.617c-0.387 0-0.721 0.007-1.002 0.02-0.284 0.014-0.617 0.052-0.998 0.116-0.381 0.064-0.692 0.153-0.932 0.269-0.243 0.113-0.451 0.28-0.626 0.502-0.171 0.218-0.257 0.479-0.257 0.782v0c0 0.425 0.214 0.802 0.642 1.131 0.428 0.331 0.939 0.497 1.533 0.497v0c0.87 0 1.622-0.341 2.257-1.023zM230.531 157.927l0.232 1.131c-0.978 0.251-1.74 0.377-2.286 0.377-0.547 0-1.008-0.088-1.384-0.265-0.378-0.174-0.665-0.422-0.861-0.746-0.196-0.326-0.336-0.675-0.418-1.048-0.086-0.373-0.128-0.802-0.129-1.288v0-5.542h-1.342v-1.304h1.342v-2.862h1.661v2.862h3.044v1.304h-3.044v5.522c0 1.381 0.545 2.071 1.636 2.071v0c0.196 0 0.712-0.07 1.549-0.212zM238.368 157.927l0.232 1.131c-0.978 0.251-1.74 0.377-2.287 0.377-0.544 0-1.005-0.088-1.383-0.265-0.378-0.174-0.665-0.422-0.862-0.746-0.193-0.326-0.333-0.675-0.418-1.048-0.083-0.373-0.124-0.802-0.124-1.288v0-5.542h-1.346v-1.304h1.346v-2.862h1.657v2.862h3.044v1.304h-3.044v5.522c0 1.381 0.545 2.071 1.636 2.071v0c0.196 0 0.712-0.07 1.549-0.212zM245.426 149.051v0c0.486 0 0.922 0.058 1.309 0.174 0.389 0.119 0.711 0.269 0.965 0.452 0.257 0.182 0.478 0.42 0.662 0.712 0.185 0.293 0.327 0.576 0.427 0.849 0.097 0.273 0.173 0.602 0.228 0.986 0.052 0.384 0.086 0.718 0.099 1.002 0.014 0.282 0.021 0.616 0.021 1.003v0 0.787h-6.867c0 0.364 0.083 0.726 0.248 1.085 0.166 0.362 0.399 0.693 0.7 0.994 0.298 0.298 0.692 0.543 1.181 0.733 0.489 0.188 1.03 0.282 1.623 0.282v0c0.701 0 1.459-0.121 2.274-0.365v0l0.294 1.135c-1.085 0.37-2.15 0.555-3.193 0.555v0c-0.735 0-1.388-0.098-1.959-0.294-0.569-0.196-1.027-0.45-1.376-0.762-0.345-0.315-0.63-0.692-0.853-1.131-0.224-0.436-0.377-0.873-0.46-1.309-0.086-0.434-0.128-0.893-0.128-1.379v0c0-0.748 0.091-1.433 0.273-2.055 0.182-0.619 0.429-1.139 0.742-1.561 0.309-0.42 0.671-0.775 1.085-1.065 0.414-0.29 0.849-0.501 1.305-0.633 0.456-0.13 0.922-0.195 1.4-0.195zM245.074 150.484v0c-0.594 0-1.105 0.164-1.533 0.493-0.428 0.326-0.74 0.732-0.936 1.218-0.196 0.486-0.294 1.008-0.294 1.565v0h5.219c0-2.184-0.819-3.276-2.456-3.276zM253.436 149.242l0.311 0.749c0.842-0.627 1.773-0.94 2.792-0.94v0c0.701 0 1.339 0.131 1.913 0.394v0l-0.509 1.325c-0.525-0.204-1.07-0.307-1.636-0.307v0c-0.842 0-1.635 0.233-2.378 0.7v0 8.069h-1.657v-9.99zM264.516 149.051v0c0.144 0 0.278 0.001 0.402 0.004 0.124 0.003 0.246 0.011 0.364 0.025 0.116 0.014 0.217 0.023 0.303 0.029 0.083 0.008 0.181 0.022 0.294 0.041 0.11 0.019 0.191 0.035 0.24 0.046 0.052 0.011 0.137 0.032 0.253 0.062 0.119 0.03 0.192 0.048 0.219 0.054 0.028 0.006 0.106 0.029 0.236 0.07 0.133 0.041 0.208 0.065 0.228 0.071v0l-0.422 1.263c-0.903-0.249-1.7-0.373-2.39-0.373v0c-0.398 0-0.75 0.04-1.056 0.12-0.307 0.083-0.543 0.181-0.709 0.295-0.163 0.116-0.297 0.25-0.402 0.401-0.105 0.149-0.173 0.282-0.203 0.398-0.03 0.113-0.046 0.225-0.045 0.335v0c0 0.276 0.144 0.522 0.431 0.738 0.287 0.215 0.645 0.391 1.072 0.526 0.428 0.135 0.891 0.295 1.388 0.48 0.5 0.185 0.964 0.38 1.392 0.584 0.428 0.207 0.786 0.496 1.072 0.866 0.284 0.37 0.427 0.798 0.427 1.284v0c0 0.276-0.035 0.544-0.103 0.803-0.072 0.26-0.207 0.532-0.406 0.816-0.199 0.282-0.454 0.526-0.767 0.734-0.315 0.204-0.735 0.374-1.259 0.509-0.527 0.135-1.131 0.203-1.81 0.203v0c-1.033 0-2.166-0.253-3.4-0.758v0l0.468-1.255c0.693 0.257 1.261 0.439 1.702 0.547 0.442 0.108 0.875 0.162 1.301 0.161v0c1.643 0 2.464-0.523 2.464-1.57v0c0-0.229-0.08-0.431-0.24-0.604-0.163-0.174-0.378-0.318-0.646-0.431-0.271-0.11-0.576-0.225-0.916-0.344-0.342-0.119-0.69-0.228-1.043-0.327-0.353-0.102-0.7-0.236-1.04-0.402-0.342-0.163-0.648-0.344-0.915-0.542-0.271-0.199-0.486-0.457-0.647-0.775-0.163-0.318-0.244-0.675-0.244-1.073v0c0-0.243 0.039-0.49 0.116-0.741 0.077-0.254 0.222-0.521 0.435-0.8 0.213-0.282 0.478-0.527 0.795-0.737 0.315-0.213 0.737-0.388 1.268-0.526 0.53-0.138 1.128-0.207 1.793-0.207z" fill="#243cfc" fill-rule="nonzero" stroke="none" stroke-width="1" stroke-linecap="butt" stroke-linejoin="miter" stroke-miterlimit="10" stroke-dasharray="" stroke-dashoffset="0" font-family="none" font-weight="none" font-size="none" text-anchor="none" style="mix-blend-mode: normal" data-fill-palette-color="secondary" id="text-1"></path></g></g><g transform="matrix(1,0,0,1,29.33176499999999,22.767067848621974)"><svg viewBox="0 0 316.416 27.333344302756068" height="27.333344302756068" width="316.416"><g><svg viewBox="0 0 316.416 27.333344302756068" height="27.333344302756068" width="316.416"><g><svg viewBox="0 0 316.416 27.333344302756068" height="27.333344302756068" width="316.416"><g id="textblocktransform"><svg viewBox="0 0 316.416 27.333344302756068" height="27.333344302756068" width="316.416" id="textblock"><g><svg viewBox="0 0 316.416 27.333344302756068" height="27.333344302756068" width="316.416"><g transform="matrix(1,0,0,1,0,0)"><svg width="316.416" viewBox="4.32 -40.5 474.78000000000003 41.01" height="27.333344302756068" data-palette-color="#243cfc"><path d="M4.32 0L4.32-40.5 11.55-40.5 11.55-26.1Q12.5-26.76 13.79-27.34 15.09-27.93 16.58-28.37 18.07-28.81 19.65-29.06 21.24-29.32 22.83-29.32L22.83-29.32Q26.49-29.32 29.55-28.25 32.62-27.17 34.81-25.22 37.01-23.27 38.24-20.54 39.48-17.82 39.48-14.53L39.48-14.53Q39.48-11.08 38.18-8.31 36.89-5.54 34.61-3.58 32.32-1.61 29.19-0.55 26.05 0.51 22.39 0.51L22.39 0.51Q20.83 0.51 19.3 0.32 17.77 0.12 16.37-0.22 14.97-0.56 13.73-1.04 12.5-1.51 11.55-2.08L11.55-2.08 11.55 0 4.32 0ZM11.55-19.04L11.55-9.06Q12.65-8.18 13.87-7.57 15.09-6.96 16.36-6.57 17.63-6.18 18.92-5.99 20.21-5.81 21.44-5.81L21.44-5.81Q23.93-5.81 25.87-6.48 27.81-7.15 29.14-8.33 30.47-9.5 31.18-11.08 31.88-12.67 31.88-14.53L31.88-14.53Q31.88-16.26 31.19-17.8 30.49-19.34 29.19-20.5 27.88-21.66 26.04-22.33 24.19-23 21.9-23L21.9-23Q20.43-23 18.97-22.72 17.5-22.44 16.15-21.92 14.79-21.41 13.61-20.68 12.43-19.95 11.55-19.04L11.55-19.04ZM46.16 0L46.16-28.81 53.39-28.81 53.39-24.66Q55.78-26.44 58.44-27.73 61.11-29.03 63.74-29.71L63.74-29.71 65.87-23.1Q61.69-22.68 58.53-21.23 55.37-19.78 53.39-17.14L53.39-17.14 53.39 0 46.16 0ZM69.5-14.4L69.5-14.4Q69.5-17.5 70.76-20.21 72.02-22.92 74.35-24.95 76.68-26.98 79.99-28.15 83.3-29.32 87.42-29.32L87.42-29.32Q91.55-29.32 94.86-28.15 98.16-26.98 100.5-24.95 102.83-22.92 104.08-20.21 105.34-17.5 105.34-14.4L105.34-14.4Q105.34-11.3 104.08-8.59 102.83-5.88 100.5-3.86 98.16-1.83 94.86-0.66 91.55 0.51 87.42 0.51L87.42 0.51Q83.3 0.51 79.99-0.66 76.68-1.83 74.35-3.86 72.02-5.88 70.76-8.59 69.5-11.3 69.5-14.4ZM77.09-14.4L77.09-14.4Q77.09-12.67 77.79-11.12 78.49-9.57 79.82-8.39 81.15-7.2 83.06-6.51 84.98-5.81 87.42-5.81L87.42-5.81Q89.86-5.81 91.78-6.51 93.7-7.2 95.03-8.39 96.36-9.57 97.05-11.12 97.75-12.67 97.75-14.4L97.75-14.4Q97.75-16.14 97.05-17.7 96.36-19.26 95.03-20.45 93.7-21.63 91.78-22.33 89.86-23.02 87.42-23.02L87.42-23.02Q84.98-23.02 83.06-22.33 81.15-21.63 79.82-20.45 78.49-19.26 77.79-17.7 77.09-16.14 77.09-14.4ZM110.91-14.33L110.91-14.33Q110.91-17.5 112.07-20.25 113.22-23 115.46-25.01 117.69-27.03 120.93-28.17 124.16-29.32 128.31-29.32L128.31-29.32Q130.12-29.32 131.95-29.1 133.78-28.88 135.48-28.48 137.18-28.08 138.66-27.53 140.15-26.98 141.25-26.32L141.25-26.32 137.91-20.87Q135.54-21.97 133.43-22.49 131.32-23 129.14-23L129.14-23Q126.65-23 124.68-22.35 122.7-21.7 121.32-20.54 119.94-19.38 119.22-17.81 118.5-16.24 118.5-14.38L118.5-14.38Q118.5-12.52 119.27-10.95 120.04-9.38 121.44-8.24 122.84-7.1 124.83-6.46 126.82-5.81 129.26-5.81L129.26-5.81Q131.95-5.81 134.33-6.57 136.71-7.32 138.76-8.59L138.76-8.59 142.11-3.15Q140.81-2.37 139.3-1.7 137.79-1.03 136.06-0.54 134.34-0.05 132.45 0.23 130.56 0.51 128.53 0.51L128.53 0.51Q124.41 0.51 121.14-0.61 117.86-1.73 115.59-3.72 113.32-5.71 112.11-8.42 110.91-11.13 110.91-14.33ZM148.16-14.4L148.16-14.4Q148.16-17.5 149.42-20.21 150.67-22.92 153.01-24.95 155.34-26.98 158.64-28.15 161.95-29.32 166.08-29.32L166.08-29.32Q170.2-29.32 173.51-28.15 176.82-26.98 179.15-24.95 181.48-22.92 182.74-20.21 184-17.5 184-14.4L184-14.4Q184-11.3 182.74-8.59 181.48-5.88 179.15-3.86 176.82-1.83 173.51-0.66 170.2 0.51 166.08 0.51L166.08 0.51Q161.95 0.51 158.64-0.66 155.34-1.83 153.01-3.86 150.67-5.88 149.42-8.59 148.16-11.3 148.16-14.4ZM155.75-14.4L155.75-14.4Q155.75-12.67 156.45-11.12 157.14-9.57 158.47-8.39 159.8-7.2 161.72-6.51 163.64-5.81 166.08-5.81L166.08-5.81Q168.52-5.81 170.44-6.51 172.35-7.2 173.68-8.39 175.01-9.57 175.71-11.12 176.41-12.67 176.41-14.4L176.41-14.4Q176.41-16.14 175.71-17.7 175.01-19.26 173.68-20.45 172.35-21.63 170.44-22.33 168.52-23.02 166.08-23.02L166.08-23.02Q163.64-23.02 161.72-22.33 159.8-21.63 158.47-20.45 157.14-19.26 156.45-17.7 155.75-16.14 155.75-14.4ZM189.07-14.28L189.07-14.28Q189.07-17.72 190.37-20.5 191.66-23.27 193.95-25.23 196.23-27.2 199.36-28.26 202.5-29.32 206.16-29.32L206.16-29.32Q207.73-29.32 209.25-29.13 210.78-28.93 212.18-28.59 213.59-28.25 214.82-27.77 216.05-27.29 217-26.73L217-26.73 217-40.5 224.23-40.5 224.23 0 217 0 217-2.71Q216.05-2.05 214.76-1.46 213.46-0.88 211.97-0.44 210.49 0 208.89 0.26 207.29 0.51 205.72 0.51L205.72 0.51Q202.06 0.51 199-0.56 195.93-1.64 193.74-3.59 191.54-5.54 190.31-8.26 189.07-10.99 189.07-14.28ZM196.67-14.28L196.67-14.28Q196.67-12.55 197.36-11.01 198.06-9.47 199.36-8.31 200.67-7.15 202.51-6.48 204.36-5.81 206.65-5.81L206.65-5.81Q208.12-5.81 209.58-6.09 211.05-6.37 212.4-6.88 213.76-7.4 214.94-8.13 216.13-8.86 217-9.77L217-9.77 217-19.75Q215.91-20.63 214.68-21.24 213.46-21.85 212.19-22.24 210.93-22.63 209.63-22.81 208.34-23 207.12-23L207.12-23Q204.63-23 202.69-22.33 200.74-21.66 199.41-20.48 198.08-19.31 197.38-17.72 196.67-16.14 196.67-14.28ZM231.7-14.5L231.7-14.5Q231.7-17.43 232.9-20.1 234.09-22.78 236.34-24.83 238.58-26.88 241.84-28.1 245.1-29.32 249.25-29.32L249.25-29.32Q253.38-29.32 256.69-28.09 259.99-26.86 262.3-24.71 264.61-22.56 265.84-19.65 267.07-16.75 267.07-13.43L267.07-13.43Q267.07-13.01 267.06-12.54 267.05-12.06 267-11.67L267-11.67 239.76-11.67Q240.22-10.38 241.26-9.3 242.29-8.23 243.86-7.45 245.42-6.67 247.47-6.24 249.52-5.81 252.01-5.81L252.01-5.81Q254.5-5.81 256.97-6.34 259.43-6.86 261.68-7.67L261.68-7.67 264.12-2.15Q262.7-1.49 261.25-0.99 259.8-0.49 258.22-0.16 256.65 0.17 254.93 0.34 253.21 0.51 251.3 0.51L251.3 0.51Q246.44 0.51 242.78-0.66 239.12-1.83 236.65-3.86 234.19-5.88 232.94-8.62 231.7-11.35 231.7-14.5ZM239.76-17.31L259.41-17.31Q259.02-18.51 258.2-19.54 257.38-20.58 256.16-21.35 254.94-22.12 253.33-22.56 251.72-23 249.79-23L249.79-23Q247.74-23 246.05-22.53 244.37-22.07 243.1-21.29 241.83-20.51 240.99-19.48 240.15-18.46 239.76-17.31L239.76-17.31ZM289.46-3.37L292.58-8.84Q295.51-7.08 299.03-6.25 302.54-5.42 306.23-5.42L306.23-5.42Q308.72-5.42 310.38-5.76 312.04-6.1 313.04-6.64 314.04-7.18 314.46-7.86 314.87-8.54 314.87-9.25L314.87-9.25Q314.87-10.28 313.98-11.01 313.09-11.74 311.04-11.74L311.04-11.74Q310.09-11.74 308.99-11.62 307.89-11.5 306.68-11.36 305.47-11.23 304.17-11.11 302.86-10.99 301.52-10.99L301.52-10.99Q298.59-10.99 296.53-11.62 294.46-12.26 293.17-13.35 291.87-14.45 291.29-15.95 290.7-17.46 290.7-19.19L290.7-19.19Q290.7-21.39 291.73-23.24 292.75-25.1 294.66-26.45 296.56-27.81 299.26-28.56 301.96-29.32 305.28-29.32L305.28-29.32Q307.01-29.32 308.9-29.11 310.8-28.91 312.63-28.56 314.46-28.22 316.14-27.77 317.83-27.32 319.12-26.81L319.12-26.81 316.85-21.19Q314.09-22.22 311.34-22.81 308.6-23.41 305.69-23.41L305.69-23.41Q303.67-23.41 302.26-23.11 300.86-22.8 299.98-22.3 299.1-21.8 298.7-21.15 298.3-20.51 298.3-19.8L298.3-19.8Q298.3-19.29 298.5-18.87 298.71-18.46 299.19-18.15 299.66-17.85 300.43-17.69 301.2-17.53 302.32-17.53L302.32-17.53Q303.35-17.53 304.5-17.65 305.64-17.77 306.89-17.91 308.13-18.04 309.46-18.16 310.8-18.29 312.19-18.29L312.19-18.29Q314.77-18.29 316.72-17.68 318.66-17.07 319.93-15.97 321.2-14.87 321.83-13.38 322.47-11.89 322.47-10.13L322.47-10.13Q322.47-7.86 321.42-5.91 320.37-3.96 318.29-2.53 316.22-1.1 313.13-0.29 310.04 0.51 305.99 0.51L305.99 0.51Q303.5 0.51 301.18 0.21 298.86-0.1 296.76-0.62 294.66-1.15 292.81-1.86 290.97-2.56 289.46-3.37L289.46-3.37ZM327.59-9.08L327.59-9.08Q327.59-11.16 328.49-12.87 329.4-14.58 331.2-15.81 333.01-17.04 335.71-17.71 338.41-18.38 341.99-18.38L341.99-18.38Q344.66-18.38 347.6-17.99 350.54-17.6 353.66-16.8L353.66-16.8Q353.54-18.16 352.83-19.32 352.13-20.48 350.87-21.33 349.61-22.17 347.84-22.63 346.07-23.1 343.83-23.1L343.83-23.1Q342.6-23.1 341.14-22.95 339.67-22.8 338.11-22.51 336.55-22.22 335.02-21.78 333.5-21.34 332.18-20.73L332.18-20.73 329.98-26.66Q331.62-27.25 333.49-27.73 335.35-28.22 337.31-28.58 339.26-28.93 341.21-29.13 343.17-29.32 345-29.32L345-29.32Q353.08-29.32 357.01-25.2 360.94-21.07 360.94-12.55L360.94-12.55 360.94 0 353.71 0 353.71-2.71Q352.59-2.05 351.26-1.46 349.93-0.88 348.37-0.44 346.8 0 345.01 0.26 343.21 0.51 341.21 0.51L341.21 0.51Q337.84 0.51 335.29-0.22 332.74-0.95 331.03-2.25 329.32-3.54 328.46-5.29 327.59-7.03 327.59-9.08ZM335.21-9.33L335.21-9.33Q335.21-8.62 335.57-7.97 335.94-7.32 336.75-6.82 337.55-6.32 338.81-6.02 340.07-5.71 341.85-5.71L341.85-5.71Q343.75-5.71 345.53-6.05 347.32-6.4 348.85-6.96 350.39-7.52 351.64-8.25 352.88-8.98 353.71-9.77L353.71-9.77 353.71-11.04Q352.05-11.5 350.43-11.82 348.81-12.13 347.33-12.32 345.85-12.5 344.55-12.57 343.24-12.65 342.26-12.65L342.26-12.65Q340.24-12.65 338.89-12.38 337.55-12.11 336.72-11.66 335.89-11.21 335.55-10.6 335.21-9.99 335.21-9.33ZM368.75-14.33L368.75-14.33Q368.75-17.5 369.91-20.25 371.07-23 373.3-25.01 375.54-27.03 378.77-28.17 382.01-29.32 386.16-29.32L386.16-29.32Q387.96-29.32 389.79-29.1 391.63-28.88 393.32-28.48 395.02-28.08 396.51-27.53 398-26.98 399.1-26.32L399.1-26.32 395.75-20.87Q393.38-21.97 391.27-22.49 389.16-23 386.99-23L386.99-23Q384.5-23 382.52-22.35 380.54-21.7 379.16-20.54 377.78-19.38 377.06-17.81 376.34-16.24 376.34-14.38L376.34-14.38Q376.34-12.52 377.11-10.95 377.88-9.38 379.28-8.24 380.69-7.1 382.68-6.46 384.67-5.81 387.11-5.81L387.11-5.81Q389.79-5.81 392.17-6.57 394.56-7.32 396.61-8.59L396.61-8.59 399.95-3.15Q398.66-2.37 397.14-1.7 395.63-1.03 393.91-0.54 392.19-0.05 390.29 0.23 388.4 0.51 386.38 0.51L386.38 0.51Q382.25 0.51 378.98-0.61 375.71-1.73 373.44-3.72 371.17-5.71 369.96-8.42 368.75-11.13 368.75-14.33ZM406-14.33L406-14.33Q406-17.5 407.16-20.25 408.32-23 410.56-25.01 412.79-27.03 416.02-28.17 419.26-29.32 423.41-29.32L423.41-29.32Q425.22-29.32 427.05-29.1 428.88-28.88 430.58-28.48 432.27-28.08 433.76-27.53 435.25-26.98 436.35-26.32L436.35-26.32 433-20.87Q430.64-21.97 428.52-22.49 426.41-23 424.24-23L424.24-23Q421.75-23 419.77-22.35 417.79-21.7 416.42-20.54 415.04-19.38 414.32-17.81 413.6-16.24 413.6-14.38L413.6-14.38Q413.6-12.52 414.36-10.95 415.13-9.38 416.54-8.24 417.94-7.1 419.93-6.46 421.92-5.81 424.36-5.81L424.36-5.81Q427.05-5.81 429.43-6.57 431.81-7.32 433.86-8.59L433.86-8.59 437.2-3.15Q435.91-2.37 434.4-1.7 432.88-1.03 431.16-0.54 429.44-0.05 427.55 0.23 425.66 0.51 423.63 0.51L423.63 0.51Q419.5 0.51 416.23-0.61 412.96-1.73 410.69-3.72 408.42-5.71 407.21-8.42 406-11.13 406-14.33ZM443.26-14.4L443.26-14.4Q443.26-17.5 444.51-20.21 445.77-22.92 448.1-24.95 450.43-26.98 453.74-28.15 457.05-29.32 461.18-29.32L461.18-29.32Q465.3-29.32 468.61-28.15 471.92-26.98 474.25-24.95 476.58-22.92 477.84-20.21 479.1-17.5 479.1-14.4L479.1-14.4Q479.1-11.3 477.84-8.59 476.58-5.88 474.25-3.86 471.92-1.83 468.61-0.66 465.3 0.51 461.18 0.51L461.18 0.51Q457.05 0.51 453.74-0.66 450.43-1.83 448.1-3.86 445.77-5.88 444.51-8.59 443.26-11.3 443.26-14.4ZM450.85-14.4L450.85-14.4Q450.85-12.67 451.54-11.12 452.24-9.57 453.57-8.39 454.9-7.2 456.82-6.51 458.73-5.81 461.18-5.81L461.18-5.81Q463.62-5.81 465.53-6.51 467.45-7.2 468.78-8.39 470.11-9.57 470.81-11.12 471.5-12.67 471.5-14.4L471.5-14.4Q471.5-16.14 470.81-17.7 470.11-19.26 468.78-20.45 467.45-21.63 465.53-22.33 463.62-23.02 461.18-23.02L461.18-23.02Q458.73-23.02 456.82-22.33 454.9-21.63 453.57-20.45 452.24-19.26 451.54-17.7 450.85-16.14 450.85-14.4Z" opacity="1" transform="matrix(1,0,0,1,0,0)" fill="#243cfc" class="wordmark-text-0" data-fill-palette-color="primary" id="text-0"></path></svg></g></svg></g></svg></g></svg></g><g></g></svg></g></svg></g></svg></g><defs></defs></svg><rect width="375.07953" height="72.86748000000001" fill="none" stroke="none" visibility="hidden"></rect></g></svg></g></svg>